<svg width="58" height="62" viewBox="0 0 58 62" fill="none" xmlns="http://www.w3.org/2000/svg">
<g clip-path="url(#clip0_80_242)">
<path d="M29 5.58242C36.7484 5.58242 37.666 5.61875 40.7133 5.76406C43.5453 5.89726 45.0746 6.40586 46.0941 6.82969C47.4422 7.38672 48.4164 8.06484 49.4246 9.14258C50.4441 10.2324 51.0672 11.2617 51.5883 12.7027C51.9848 13.7926 52.4606 15.4395 52.5852 18.4547C52.7211 21.7242 52.7551 22.7051 52.7551 30.9758C52.7551 39.2586 52.7211 40.2395 52.5852 43.4969C52.4606 46.5242 51.9848 48.159 51.5883 49.2488C51.0672 50.6898 50.4328 51.7313 49.4246 52.809C48.4051 53.8988 47.4422 54.5648 46.0941 55.1219C45.0746 55.5457 43.534 56.0543 40.7133 56.1875C37.6547 56.3328 36.7371 56.3691 29 56.3691C21.2516 56.3691 20.334 56.3328 17.2867 56.1875C14.4547 56.0543 12.9254 55.5457 11.9059 55.1219C10.5578 54.5648 9.58359 53.8867 8.57539 52.809C7.55586 51.7191 6.93281 50.6898 6.41172 49.2488C6.01523 48.159 5.53945 46.5121 5.41484 43.4969C5.27891 40.2273 5.24492 39.2465 5.24492 30.9758C5.24492 22.693 5.27891 21.7121 5.41484 18.4547C5.53945 15.4273 6.01523 13.7926 6.41172 12.7027C6.93281 11.2617 7.56719 10.2203 8.57539 9.14258C9.59492 8.05273 10.5578 7.38672 11.9059 6.82969C12.9254 6.40586 14.466 5.89726 17.2867 5.76406C20.334 5.61875 21.2516 5.58242 29 5.58242ZM29 0C21.127 0 20.1414 0.0363281 17.0488 0.181641C13.9676 0.326953 11.8492 0.859765 10.0141 1.62266C8.09961 2.42187 6.47969 3.47539 4.87109 5.20703C3.25117 6.92656 2.26563 8.6582 1.51797 10.6926C0.804297 12.6664 0.305859 14.9187 0.169922 18.2125C0.0339844 21.5305 0 22.584 0 31C0 39.416 0.0339844 40.4695 0.169922 43.7754C0.305859 47.0691 0.804297 49.3336 1.51797 51.2953C2.26563 53.3418 3.25117 55.0734 4.87109 56.793C6.47969 58.5125 8.09961 59.5781 10.0027 60.3652C11.8492 61.1281 13.9563 61.6609 17.0375 61.8062C20.1301 61.9516 21.1156 61.9879 28.9887 61.9879C36.8617 61.9879 37.8473 61.9516 40.9398 61.8062C44.0211 61.6609 46.1395 61.1281 47.9746 60.3652C49.8777 59.5781 51.4977 58.5125 53.1063 56.793C54.7148 55.0734 55.7117 53.3418 56.4481 51.3074C57.1617 49.3336 57.6602 47.0812 57.7961 43.7875C57.932 40.4816 57.966 39.4281 57.966 31.0121C57.966 22.5961 57.932 21.5426 57.7961 18.2367C57.6602 14.943 57.1617 12.6785 56.4481 10.7168C55.7344 8.6582 54.7488 6.92656 53.1289 5.20703C51.5203 3.4875 49.9004 2.42188 47.9973 1.63477C46.1508 0.871875 44.0438 0.339063 40.9625 0.19375C37.8586 0.0363281 36.8731 0 29 0Z" fill="#E52622"/>
<path d="M29 15.0762C20.7758 15.0762 14.1035 22.2086 14.1035 31C14.1035 39.7914 20.7758 46.9238 29 46.9238C37.2242 46.9238 43.8965 39.7914 43.8965 31C43.8965 22.2086 37.2242 15.0762 29 15.0762ZM29 41.3293C23.6645 41.3293 19.3371 36.7035 19.3371 31C19.3371 25.2965 23.6645 20.6707 29 20.6707C34.3355 20.6707 38.6629 25.2965 38.6629 31C38.6629 36.7035 34.3355 41.3293 29 41.3293Z" fill="#E52622"/>
<path d="M47.9633 14.4463C47.9633 16.5049 46.4 18.1639 44.4855 18.1639C42.5598 18.1639 41.0078 16.4928 41.0078 14.4463C41.0078 12.3877 42.5711 10.7288 44.4855 10.7288C46.4 10.7288 47.9633 12.3999 47.9633 14.4463Z" fill="#E52622"/>
</g>
<defs>
<clipPath id="clip0_80_242">
<rect width="58" height="62" fill="white"/>
</clipPath>
</defs>
</svg>
