<svg width="2472" height="2462" viewBox="0 0 2472 2462" fill="none" xmlns="http://www.w3.org/2000/svg">
<path d="M1563.58 1876.11C1567.47 1874.54 1569.99 1870.04 1575.24 1871.27C1576.95 1871.68 1578.38 1870.04 1578.99 1867.99C1582.61 1854.9 1587.86 1849.72 1600.95 1846.72C1603.88 1846.04 1605.04 1843.58 1606.2 1841.68C1609.2 1836.77 1613.15 1833.36 1618.67 1832.2C1620.92 1831.72 1622.42 1831.45 1623.52 1828.92C1625.02 1825.38 1627.2 1824.7 1629.24 1829.06C1630.06 1830.7 1631.9 1830.97 1633.88 1829.88C1639.61 1826.81 1646.63 1827.63 1652.36 1824.22C1653.52 1823.54 1655.15 1822.99 1656.45 1823.2C1662.11 1824.29 1667.22 1826.95 1673.7 1824.22C1679.56 1821.77 1686.65 1823.13 1693.13 1823.47C1698.93 1823.81 1704.93 1823.74 1709.49 1828.17C1711.81 1830.42 1714.06 1829.61 1716.52 1828.45C1721.56 1826.06 1726.4 1825.79 1732.2 1826.95C1741 1828.65 1750.06 1829.95 1759.2 1829.33C1762.06 1829.13 1765.2 1829.13 1767.86 1830.02C1778.09 1833.42 1789 1832.88 1799.36 1835.33C1800.04 1835.47 1800.86 1835.54 1801.47 1835.33C1817.7 1828.72 1834.07 1834.86 1849.82 1836.56C1866.25 1838.33 1882.54 1836.7 1898.91 1838.13C1902.59 1838.47 1906.75 1836.49 1910.23 1834.72C1915.27 1832.13 1916.77 1827.63 1914.93 1821.77C1913.98 1818.63 1913.29 1814.81 1911.11 1812.83C1901.63 1804.38 1896.11 1792.38 1885.48 1784.88C1881.66 1782.15 1878.32 1778.54 1875.38 1774.92C1865.91 1763.4 1854.18 1754.06 1844.02 1743.29C1831.07 1729.65 1817.84 1716.08 1806.86 1700.67C1798.95 1689.49 1796.43 1677.22 1797.52 1663.65C1797.86 1659.49 1801 1657.51 1802.22 1654.1C1807.95 1638.01 1819.61 1627.1 1832.84 1616.74C1840.95 1610.33 1848.32 1602.42 1855.41 1594.58C1862.16 1587.08 1869.45 1580.12 1876.34 1572.62C1885.34 1562.81 1897.82 1557.01 1909.68 1550.87C1916.16 1547.53 1923.04 1551.35 1929.79 1550.26C1935.39 1549.31 1940.23 1551.56 1945.34 1555.24C1956.66 1563.35 1966.82 1572.69 1977.52 1581.42C1985.98 1588.31 1993.14 1596.9 1999.89 1605.22C2011.82 1619.94 2027.91 1630.44 2038.96 1646.13C2043.32 1652.33 2050.21 1657.38 2056.21 1662.63C2074 1678.31 2087.3 1698.35 2105.03 1714.04C2117.16 1724.81 2129.37 1736.06 2139.46 1748.4C2153.09 1765.04 2169.8 1778.33 2183.78 1794.49C2194 1806.42 2206.14 1817.13 2217.32 1828.45C2230.76 1842.08 2243.85 1855.93 2256.05 1870.72C2258.37 1873.52 2261.51 1875.63 2263.48 1878.63C2266.48 1883.13 2271.6 1887.15 2268.53 1893.77C2273.71 1898.81 2271.05 1904.4 2268.87 1909.31C2266.01 1915.72 2266.82 1921.65 2269.28 1927.72C2269.28 1928.54 2269.01 1929.15 2268.32 1929.56C2266.96 1930.18 2267.51 1931.47 2267.23 1932.56C2266.55 1934.47 2265.19 1935.77 2263.89 1937.2C2262.6 1938.77 2261.3 1940.34 2260.28 1942.11C2259.19 1944.7 2264.17 1947.36 2260.14 1949.95C2258.03 1950.15 2255.91 1949.54 2253.8 1950.15C2254.48 1952.13 2259.46 1950.43 2257.62 1954.59C2254.41 1958.68 2249.98 1957.04 2246.03 1956.63C2243.51 1960.59 2247.73 1967.06 2243.03 1968.36C2237.85 1969.79 2240.71 1975.86 2235.39 1977.29C2231.64 1978.31 2228.1 1981.38 2223.66 1981.79C2222.37 1981.93 2221.21 1983.16 2219.98 1983.91V1983.7C2220.8 1986.77 2218.89 1987.86 2216.57 1987.31C2210.91 1985.95 2206.75 1987.93 2203.62 1992.36C2201.1 1995.97 2197.35 1997 2193.6 1998.22C2187.19 2000.41 2186.3 2002.18 2187.25 2009.27C2187.53 2011.18 2188.35 2013.36 2186.85 2015.2C2183.1 2016.5 2184.19 2010.7 2180.91 2011.38C2177.98 2012.81 2174.23 2012.68 2172.32 2016.02C2168.71 2021.07 2163.59 2017.38 2159.3 2018.2C2158.21 2019.16 2156.78 2019.56 2155.48 2020.11C2152.62 2021.95 2148.94 2020.72 2146.14 2022.63L2145.94 2022.43C2143.55 2024 2142.8 2021.2 2141.16 2020.72C2133.12 2021.34 2124.93 2025.22 2117.03 2020.11C2103.59 2023.59 2090.43 2016.97 2076.73 2019.29C2068.55 2020.66 2059.62 2017.25 2050.96 2016.7C2033.16 2015.54 2015.36 2014.93 1997.64 2013.91C1987.89 2013.36 1978.2 2012.06 1968.52 2011.52C1952.91 2010.7 1937.29 2010.7 1921.75 2009.41C1910.5 2008.45 1899.45 2008.59 1888.54 2011.31C1885.95 2012 1882 2010.09 1881.32 2014.11C1880.57 2018.82 1876.54 2023.25 1880.77 2028.5C1887.52 2037.02 1893.73 2045.88 1901.43 2053.66C1906.75 2059.04 1912.68 2063.88 1915.68 2071.25C1916.43 2073.09 1918.41 2074.79 1920.18 2075.82C1928.29 2080.45 1934.23 2087.27 1939.75 2094.57C1948.55 2106.29 1960.75 2114.41 1970.64 2125.04C1979.57 2134.66 1988.23 2144.48 1993.14 2156.55C1995.59 2162.61 1995.05 2170.32 1994.3 2177.14C1993.89 2180.95 1994.43 2186.07 1989.73 2188.73C1988.57 2189.41 1987.2 2190.7 1987 2191.93C1984.61 2206.73 1972.55 2213.89 1962.59 2222.61C1960 2224.86 1951.27 2236.18 1948.95 2241.64C1948.34 2243.07 1947.73 2242.52 1946.91 2242.8C1940.23 2244.98 1936.07 2250.37 1930.95 2254.73C1923.25 2261.41 1917.73 2270.27 1907.98 2275.12C1901.98 2278.12 1898.29 2285.34 1891.95 2289.16C1880.5 2296.12 1857.52 2295.71 1846.41 2288.55C1825.95 2275.39 1809.79 2258.14 1794.11 2239.8C1784.97 2229.09 1773.93 2219.89 1764.31 2209.46C1743.93 2187.3 1722.11 2166.5 1701.45 2144.54C1693.81 2136.43 1685.36 2128.86 1677.31 2120.95C1670.08 2113.86 1662.93 2106.77 1656.99 2098.32C1653.79 2093.68 1648.13 2090.75 1644.24 2086.52C1631.08 2072 1616.08 2059.11 1604.9 2042.82C1600.13 2035.86 1592.08 2032.45 1586.29 2026.25C1568.76 2007.5 1550.35 1989.63 1534.54 1969.25C1531.06 1964.81 1529.08 1959.36 1529.42 1955.75C1530.1 1948.04 1531.6 1940.34 1531.26 1932.5C1531.2 1930.52 1532.97 1930.52 1533.92 1929.63C1535.22 1928.4 1537.6 1926.84 1536.58 1925.27C1533.38 1920.36 1538.15 1917.7 1538.9 1914.02C1539.72 1910.2 1542.72 1907.61 1542.31 1902.56C1541.83 1896.63 1547.83 1891.24 1552.33 1886.61C1555.61 1883.27 1558.06 1888.11 1561.26 1887.84C1562.01 1884.9 1556.9 1883.47 1559.29 1880.27C1561.4 1879.52 1562.83 1878.15 1563.58 1876.04V1876.11Z" fill="#E52622"/>
<path d="M566.538 1547.26C565.106 1550.74 566.879 1554.97 564.083 1558.1C561.288 1565.47 554.401 1558.85 550.447 1562.12C549.697 1562.67 549.015 1563.28 548.469 1563.97C547.037 1565.6 546.015 1567.58 544.787 1569.35C544.583 1570.72 544.787 1572.76 543.969 1573.44C541.719 1575.22 542.606 1572.22 541.787 1571.6C540.696 1570.72 539.81 1569.56 538.719 1568.74C537.969 1568.13 536.81 1567.44 535.992 1567.58C534.355 1567.92 534.424 1569.28 534.355 1570.85C533.878 1578.63 531.696 1580.13 524.673 1576.99C519.219 1574.53 513.56 1579.1 508.309 1575.9C507.968 1575.69 507.764 1577.6 507.628 1578.63C507.355 1581.15 505.855 1582.44 503.196 1582.03C500.059 1579.24 496.786 1581.49 493.514 1581.76C491.673 1581.83 489.627 1582.24 488.468 1580.53C486.218 1577.19 482.4 1576.99 479.672 1577.88C466.581 1582.03 452.945 1581.08 439.581 1582.38C435.831 1582.72 435.558 1585.78 433.99 1588.1C431.058 1592.26 428.467 1591.72 426.285 1586.4C425.808 1585.24 425.603 1584.76 424.853 1585.24C420.421 1587.83 416.33 1585.03 412.171 1584.49C410.739 1584.28 408.762 1583.6 408.148 1584.97C405.353 1591.03 401.739 1586.74 398.398 1586.06C395.671 1585.51 394.375 1586.33 395.125 1589.26C393.762 1594.1 390.625 1590.35 388.375 1590.63C388.784 1583.6 384.011 1587.42 381.011 1586.88C370.784 1585.17 361.238 1589.33 351.624 1589.06C349.374 1592.19 355.17 1593.35 352.443 1596.08C350.193 1598.33 346.988 1597.72 345.283 1596.49C337.51 1590.9 331.647 1594.38 326.124 1599.83C324.692 1601.26 323.056 1601.88 321.215 1601.6C316.237 1600.72 311.464 1601.26 306.487 1602.15C303.487 1602.69 300.828 1599.69 296.464 1600.72C292.305 1601.67 288.828 1604.4 284.396 1604.53C281.396 1604.6 278.736 1604.53 276.077 1603.31C273.145 1601.88 270.282 1600.17 267.214 1599.42C262.372 1598.19 258.35 1601.13 253.918 1602.63C250.236 1603.85 247.304 1599.22 241.918 1600.24C233.395 1601.94 224.531 1603.38 215.735 1604.47C206.326 1605.63 197.326 1603.03 188.189 1604.47C185.394 1604.88 182.189 1603.78 180.348 1606.99V1606.85C174.689 1605.15 169.439 1608.97 163.78 1608.28C158.529 1607.6 153.757 1608.76 149.461 1612.17C148.37 1613.06 145.984 1612.65 144.211 1612.38C131.461 1610.67 118.574 1612.17 106.165 1613.67C94.369 1615.1 84.5506 1611.56 73.7777 1609.44C66.1412 1607.94 61.4365 1604.26 57.5501 1598.47C52.3682 1590.69 46.1635 1583.47 45.2089 1573.65C47.0499 1570.51 44.6634 1568.74 43.0271 1566.62C48.6863 1560.08 49.8454 1553.4 44.2544 1546.03C43.368 1544.87 43.5043 1542.62 43.6407 1540.92C44.2544 1534.1 41.8679 1527.62 40.5725 1521.22C39.0724 1513.71 36.0042 1506.08 35.0496 1498.65C34.0951 1491.49 31.7768 1482.83 38.1179 1476.15C38.8679 1475.33 38.5951 1473.35 37.7088 1473.49C29.254 1474.85 33.2769 1469.33 32.7314 1465.65C31.7086 1458.83 30.9586 1452.42 34.2314 1445.94C35.5269 1443.35 35.0496 1440.15 32.595 1437.96C28.1631 1433.94 27.754 1427.74 27.8222 1423.17C27.9586 1414.44 25.7767 1406.12 25.2994 1397.6C25.0267 1392.08 23.1857 1386.96 26.3903 1381.17C27.5495 1379.05 27.6858 1373.26 26.4585 1369.92C23.5948 1361.8 22.3675 1353.96 22.0266 1345.23C21.7539 1337.87 19.6402 1329.89 17.8674 1322.26C17.4583 1320.55 16.9811 1318.78 16.3674 1317.21C14.731 1313.05 21.6175 1311.89 19.3675 1307.94C17.4583 1304.73 15.481 1301.8 17.9356 1297.91C18.7538 1296.69 18.2765 1294.85 17.1174 1293.89C13.4355 1290.69 15.0719 1286.32 15.481 1282.91C16.2992 1276.37 19.8448 1269.82 12.8901 1264.44C15.2765 1255.57 10.1627 1247.46 10.0264 1238.73C9.95819 1229.05 8.04906 1219.44 9.68546 1209.69C12.7537 1206.41 9.82183 1204.78 7.77633 1202.94C5.52628 1198.57 6.54903 1193.8 6.13993 1189.16C6.00357 1187.8 5.18537 1186.3 7.23086 1185.82C11.731 1184.8 9.95819 1182.89 8.11725 1180.64C3.13987 1174.37 3.20806 1174.3 9.27636 1167.96C10.3673 1166.8 11.0491 1164.89 9.68546 1164.28C0.685271 1160.53 2.45803 1152.07 0.821637 1145.12C-0.61021 1139.05 -0.0647455 1132.57 1.63984 1127.05C3.54897 1120.77 3.8217 1114.91 2.52622 1108.98C0.548904 1099.98 5.18537 1094.73 11.7991 1090.3C13.2992 1089.27 14.9356 1088.73 16.6402 1088.12C23.7312 1085.32 24.6858 1083.27 23.3221 1075.64C23.0494 1074.21 20.5266 1073.05 23.7312 1071.68C30.6177 1068.68 37.1633 1064.73 44.9362 1064.05C45.618 1064.05 46.5044 1063.43 46.9817 1063.64C59.9365 1070.25 72.0049 1063.64 84.2779 1061.11C89.1189 1062.55 94.4372 1062.82 97.9146 1067.32C98.6646 1067.32 99.4828 1067.66 100.096 1067.46C115.097 1060.71 123.892 1070.39 132.552 1079.86C137.324 1085.12 138.62 1092.75 144.279 1097.59C145.847 1098.96 144.279 1101 144.347 1102.64C144.62 1109.52 138.415 1117.43 147.075 1123.3C147.484 1123.57 147.211 1125.41 146.802 1126.23C143.325 1132.78 145.234 1138.64 148.575 1144.57C149.802 1146.75 153.143 1149.75 147.62 1151.66C146.12 1152.21 147.756 1154.18 148.234 1155.48C149.597 1159.84 151.575 1164.14 148.234 1168.64C147.006 1170.21 148.507 1171.98 149.052 1173.75C151.302 1181.25 150.893 1189.03 151.37 1196.73C151.575 1200.55 150.961 1204.64 152.257 1208.05C156.893 1220.12 154.029 1232.66 155.598 1244.87C155.802 1246.57 155.12 1248.48 155.393 1250.19C155.87 1253.8 162.348 1252.85 161.325 1258.16C160.711 1261.37 157.234 1264.85 161.325 1268.12C161.802 1268.46 162.211 1269.69 161.939 1270.03C155.802 1279.78 160.848 1289.6 161.939 1299.28C162.689 1305.96 159.893 1312.51 161.53 1319.26C163.848 1328.73 165.757 1338.35 167.871 1347.83C168.075 1348.92 169.098 1350.21 168.757 1350.89C163.711 1361.46 172.03 1369.3 174.416 1378.3C175.712 1383.28 180.757 1386.76 185.803 1387.37C192.962 1388.19 200.326 1387.58 207.621 1387.37C210.076 1387.37 212.19 1385.6 211.099 1383.14C209.94 1380.42 210.076 1377.28 211.712 1376.19C217.712 1372.03 216.417 1365.83 214.985 1361.12C214.031 1357.98 220.508 1357.37 215.94 1354.44C211.917 1351.85 215.803 1347.14 214.235 1343.6C212.94 1340.6 214.235 1336.57 211.031 1334.19C210.826 1334.05 210.826 1333.44 210.962 1333.1C214.031 1323.62 210.076 1314.14 210.962 1304.67C210.485 1303.57 210.553 1302.48 211.099 1301.46C211.576 1300.51 212.053 1299.55 211.44 1298.53C211.099 1297.57 210.349 1296.62 211.44 1295.66C214.372 1292.53 209.735 1291.44 209.735 1290.14C210.144 1280.05 207.758 1270.85 203.939 1261.44C201.417 1255.23 203.735 1253.25 208.985 1249.3L209.121 1249.44L205.985 1248.82C209.735 1244.87 197.939 1238.6 208.03 1235.19C209.394 1234.71 207.758 1231.23 206.394 1229.66C199.508 1221.69 203.803 1211.32 200.53 1202.53C205.44 1200 203.189 1197.34 200.803 1194.55C197.667 1190.94 194.667 1187.19 199.303 1182.48C200.939 1180.78 199.167 1179.14 198.689 1177.5C195.621 1167.55 192.28 1157.59 198.894 1147.64C199.235 1147.09 199.371 1145.8 199.098 1145.66C192.007 1141.71 194.598 1137.28 198.212 1132.64C198.689 1132.03 198.485 1130.39 197.939 1129.71C195.348 1126.43 195.485 1123.98 197.598 1120.02C198.758 1117.84 196.644 1113.75 201.076 1112.39C201.621 1112.25 202.371 1111.02 202.235 1110.75C196.235 1100.87 208.44 1101.21 210.758 1095.89C212.462 1092.07 220.644 1092.68 218.94 1085.52C218.872 1085.25 220.576 1084.02 221.531 1084.02C228.281 1084.02 232.917 1079.93 237.827 1076.18L237.622 1076.39C239.804 1070.8 244.781 1075.5 247.918 1073.59C248.6 1071.21 245.804 1070.8 245.463 1068.07C248.94 1066.98 252.486 1067.05 256.236 1067.66C264.554 1069.02 272.736 1068.55 281.191 1067.39C286.373 1066.64 292.85 1065 297.078 1070.66C299.191 1073.46 301.578 1070.32 304.032 1071.27C313.783 1075.02 321.351 1081.64 327.147 1089.82C328.919 1092.27 331.101 1094.59 332.669 1097.39C336.079 1103.39 339.351 1108.91 337.647 1116.41C336.283 1122.48 338.397 1128.62 341.533 1133.8C345.829 1140.89 347.602 1147.23 343.988 1155.62C342.283 1159.64 340.101 1166.05 344.329 1170.96C346.579 1173.62 342.692 1176.48 344.874 1179.07C345.965 1180.84 350.124 1179.41 349.238 1183.09C348.965 1184.32 347.806 1183.91 346.852 1183.5C342.351 1186.64 348.965 1192.37 344.056 1195.44C350.874 1206.69 344.942 1219.98 349.92 1231.71C351.147 1234.64 349.783 1239.07 350.056 1242.96C350.329 1246.57 351.011 1249.5 353.602 1251.41C360.079 1256.05 355.17 1257.62 351.761 1259.73L351.965 1259.53C351.352 1260.41 349.988 1261.85 350.124 1262.05C355.579 1268.94 350.397 1277.6 353.874 1284.76C354.693 1286.46 355.238 1288.03 354.829 1289.94C352.511 1301.66 357.215 1312.57 358.715 1323.82C359.534 1330.17 359.602 1336.51 361.17 1342.85C361.715 1344.96 360.965 1347.01 363.829 1347.35C366.011 1347.62 366.352 1348.03 365.806 1350.69C364.034 1359.08 367.647 1366.37 374.602 1369.98C375.557 1370.46 376.852 1371.48 377.534 1371.14C384.557 1368.08 393.489 1371.96 399.557 1365.35C401.125 1364.05 402.762 1363.98 404.398 1365.08C409.035 1365.62 411.353 1363.98 410.262 1359.01C401.944 1357.64 409.989 1351.23 406.921 1348.17C411.626 1342.85 410.398 1338.76 404.398 1335.42C403.716 1335.01 403.239 1333.44 403.375 1332.48C404.194 1325.67 402.694 1318.92 402.694 1312.44C402.694 1304.87 399.898 1297.91 400.375 1290.28C401.194 1276.64 400.512 1262.87 396.83 1249.5C396.148 1247.12 396.353 1245.21 397.239 1243.3C399.08 1239.35 400.103 1236 398.603 1231.1C397.58 1227.69 401.807 1222.71 394.034 1222.57C392.807 1222.57 391.512 1219.91 393.012 1218.07C394.784 1215.89 395.739 1212.75 394.648 1210.91C390.762 1204.09 392.875 1196.59 391.784 1189.5C390.693 1182.48 388.102 1174.5 393.693 1167.41C395.534 1165.03 396.08 1160.93 391.852 1159.09C387.352 1157.12 387.761 1153.71 388.512 1149.96C389.739 1144.09 388.171 1138.16 390.012 1132.03C390.83 1129.3 390.08 1124.05 386.534 1119.75C382.716 1115.12 383.261 1107.21 383.33 1100.59C383.33 1097.18 387.693 1092.75 381.148 1090.71C380.534 1090.5 380.807 1088.59 381.966 1088.18C385.852 1086.68 384.148 1083.62 383.057 1081.91C381.42 1079.32 381.352 1076.66 381.011 1073.93C380.466 1069.98 387.489 1067.59 384.489 1064.25C380.875 1060.23 384.761 1057.64 384.557 1054.43C384.352 1051.02 384.284 1046.93 390.012 1048.3C391.034 1048.57 392.262 1046.93 391.58 1046.11C387.489 1041.27 391.989 1040.59 394.512 1037.66C402.557 1028.25 407.194 1024.02 416.739 1021.36C417.353 1021.16 418.171 1021.5 418.921 1021.64C421.239 1022.11 422.399 1023.61 423.012 1025.59C423.285 1023.68 421.239 1020.95 424.444 1019.45C428.671 1016.93 433.308 1015.91 437.876 1017.75C441.763 1019.32 444.763 1019.18 448.717 1017.27C452.672 1015.36 457.24 1018.3 461.399 1019.11C465.286 1019.86 468.559 1019.93 471.763 1018.16C474.081 1016.93 476.127 1015.91 478.922 1016.45C494.605 1019.25 508.582 1024.16 515.878 1040.39C519.491 1048.36 521.401 1057.02 522.628 1065.07C523.923 1073.73 527.878 1081.98 527.264 1091.18C526.992 1095.96 524.673 1101.07 527.469 1106.12C530.196 1111.02 528.833 1116.68 529.105 1122C529.446 1127.59 527.742 1133.73 533.81 1137.89C534.424 1138.3 532.583 1141.84 533.469 1144.03L533.264 1143.82C535.174 1143.82 537.492 1143.96 535.583 1146.55C529.855 1154.18 534.628 1162.43 533.81 1170.34C541.856 1177.44 532.787 1186.78 537.015 1194.48C537.424 1195.3 536.128 1197 536.878 1198.57C542.606 1210.44 540.219 1222.85 539.333 1235.19C539.333 1235.94 539.06 1236.75 539.333 1237.37C543.287 1245.14 541.787 1253.46 542.333 1261.57C542.469 1263.62 541.31 1267.64 545.401 1268.87C547.515 1269.48 548.128 1271.46 546.287 1272.96C543.833 1274.94 543.833 1277.39 544.651 1279.85C548.947 1291.78 544.787 1304.87 549.969 1316.87C551.606 1320.62 550.856 1326.01 549.765 1330.3C547.037 1340.94 552.356 1350.55 552.969 1360.78C552.969 1361.6 554.469 1362.28 555.288 1363.03C556.447 1363.85 556.515 1364.67 555.356 1365.55C551.333 1374.62 552.697 1383.21 556.924 1391.94C558.015 1394.19 560.401 1396.99 557.674 1400.6C555.219 1403.94 559.992 1405.92 561.083 1408.71C562.31 1411.78 567.22 1414.99 561.629 1418.67C560.265 1419.55 560.129 1421.12 561.22 1422.42C563.811 1425.69 564.288 1428.69 560.742 1431.69C559.515 1432.71 561.356 1433.4 561.765 1434.28C564.288 1439.67 562.924 1445.46 563.674 1450.99C565.311 1452.28 565.174 1453.71 563.947 1455.21C563.265 1459.92 562.174 1463.87 564.424 1469.33C566.197 1473.49 569.879 1479.9 566.129 1485.69C570.561 1491.62 569.947 1498.03 568.106 1504.71C567.424 1507.1 569.879 1508.46 570.697 1510.44C573.493 1517.19 576.22 1523.74 572.402 1531.31C571.174 1533.76 572.538 1537.51 572.743 1540.72C572.129 1541.33 571.379 1541.74 570.493 1541.87C569.742 1542.15 568.924 1542.42 568.174 1542.62C566.538 1543.37 565.924 1544.6 566.197 1546.31C566.197 1546.72 566.333 1547.12 566.333 1547.47L566.538 1547.26Z" fill="#E52622"/>
<path d="M1953.65 730.152C1958.97 729.811 1964.29 730.084 1967.29 724.016C1969.68 719.175 1976.02 721.561 1979.56 718.357C1982.29 717.266 1985.09 716.788 1987.75 718.561C1988.97 718.97 1990.2 719.243 1991.43 718.561C1992.11 718.084 1992.86 717.743 1993.61 717.402C1994.77 716.925 1996 716.788 1997.22 716.788C2002.81 715.629 2005.81 710.652 2010.18 707.72C2011.06 706.97 2011.88 707.106 2012.63 707.993C2012.5 709.766 2010.18 713.038 2014.13 712.425C2019.31 711.606 2024.29 709.425 2029.34 707.788C2031.45 707.106 2030.56 706.015 2029.75 704.652C2027.91 701.447 2029.88 700.902 2032.47 701.174C2034.25 701.379 2036.02 702.334 2037.79 702.265C2043.52 701.993 2049.18 704.038 2055.11 700.015C2058.32 697.833 2063.84 692.788 2069.22 698.243C2069.63 698.652 2071.82 698.379 2072.16 697.833C2076.25 691.015 2085.45 691.083 2089.95 684.606C2091.79 681.947 2094.66 680.992 2096.57 685.151C2098.2 688.697 2101.34 688.356 2104 687.129C2108.09 685.22 2112.25 684.606 2116.61 684.129C2119.14 683.856 2120.64 682.901 2120.57 679.151C2120.57 674.515 2126.16 672.197 2128.27 675.538C2132.02 681.401 2134.68 679.969 2138.16 675.742C2138.7 675.06 2140.14 675.06 2141.16 674.719C2143.48 672.81 2145.59 670.287 2149.07 672.333C2159.7 668.787 2163.86 666.537 2170.2 659.651C2172.73 656.923 2176.07 655.492 2178.86 653.242V653.105C2179.27 656.242 2181.39 655.833 2183.64 655.355C2185.14 653.923 2186.84 653.855 2188.55 654.946C2192.77 657.742 2195.77 654.946 2197.61 652.014C2199.25 649.423 2201.77 647.651 2203.61 648.81C2209 652.083 2210.43 650.514 2210.3 644.923C2210.3 644.037 2212.14 642.878 2212.68 644.105C2215.41 650.514 2217.8 645.128 2219.5 643.764C2227.61 637.219 2236.34 632.037 2247.18 633.468C2251.89 634.082 2254.48 628.082 2258.02 629.923C2262.8 632.446 2262.66 627.264 2264.98 626.855C2274.52 624.946 2283.93 625.15 2293.62 627.537C2311.07 631.832 2317.28 646.355 2324.71 659.992C2328.25 666.537 2327.91 675.06 2334.87 679.833C2334.32 686.583 2336.84 692.72 2338.68 698.993C2339.09 700.356 2338.55 702.129 2339.3 703.152C2344.62 710.243 2348.57 717.743 2347.62 726.948C2355.39 732.198 2352.59 740.925 2354.84 748.084C2357.3 755.994 2359.14 764.108 2361.87 771.812C2363.98 777.881 2364.19 785.585 2370.46 789.881C2370.73 790.085 2370.94 790.494 2371.21 790.631C2375.98 792.813 2367.53 798.131 2373.73 800.381C2377.41 801.676 2378.37 805.904 2379.53 809.313C2380.41 811.904 2380.89 814.836 2379.53 817.768C2377.82 821.79 2379.19 826.018 2381.98 828.541C2389.07 834.813 2391.6 843.132 2392.35 851.791C2393.16 861.678 2396.98 870.541 2400.12 879.678C2402.5 886.701 2404 893.997 2406.05 901.019C2407.55 906.133 2408.23 912.27 2411.57 916.906C2413 918.883 2413.35 921.133 2413.14 922.974C2411.98 933.066 2416.21 941.52 2420.98 949.634C2424.8 956.043 2424.26 963.612 2427.66 970.021C2430.87 976.021 2429.51 982.908 2431.21 989.18C2432.91 995.726 2435.57 1002.07 2437.76 1008.48C2438.3 1010.18 2438.1 1013.18 2439.05 1013.52C2450.1 1017.82 2442.94 1031.04 2450.64 1036.77C2446.96 1042.7 2456.51 1047.48 2452.14 1053.48C2459.16 1064.25 2455.28 1079.73 2467.35 1088.25C2467.01 1094.39 2474.3 1098.96 2470.07 1106.52C2468.51 1109.32 2465.03 1115.86 2470.48 1120.23C2471.51 1121.05 2471.1 1122.55 2470.48 1123.16C2466.32 1127.52 2466.32 1132.77 2465.98 1138.43C2465.71 1143.14 2462.64 1142.8 2457.12 1137.41L2457.32 1137.55C2456.37 1138.16 2455.48 1138.84 2454.53 1139.46C2454.05 1141.64 2454.19 1144.02 2451.87 1145.32C2450.37 1146.41 2450.16 1148.12 2450.1 1149.82C2449.41 1151.52 2449.82 1153.57 2448.53 1155L2439.66 1157.25L2439.6 1156.98L2439.87 1157.12C2436.32 1162.5 2431.89 1166.05 2424.87 1163.8C2418.25 1161.68 2415.53 1168.3 2410.82 1170.21C2407.21 1168.5 2411.37 1166.59 2410.07 1164.41H2398.82C2398.21 1166.87 2401.07 1168.84 2400.05 1171.43C2399.3 1173.21 2398.35 1174.57 2396.23 1174.71C2394.53 1174.84 2393.57 1174.03 2393.37 1172.32C2392.75 1167.27 2387.71 1167.89 2385.8 1168.57C2375.91 1172.12 2366.37 1168.02 2356.82 1167.41C2350.89 1167 2346.94 1159.84 2342.71 1155.21C2340.12 1152.34 2338 1148.8 2337.05 1144.77C2336.16 1140.89 2334.39 1137.34 2331.53 1134.34C2329.07 1131.75 2325.66 1129.16 2329.62 1124.8C2330.23 1124.11 2328.66 1120.09 2327.16 1119.27C2321.5 1116.07 2320.07 1111.5 2321.3 1105.5C2321.57 1104 2320.75 1102.71 2319.12 1102.23L2319.32 1102.36C2319.32 1094.39 2314.28 1088.66 2310.59 1082.32C2309.57 1080.55 2307.25 1078.5 2309.03 1076.52C2313.32 1071.75 2309.98 1069.3 2307.73 1064.93C2304.53 1058.93 2301.18 1052.73 2298.73 1046.25C2297.84 1043.86 2299.68 1043.11 2300.5 1041.68C2301.93 1039.23 2301.93 1036.84 2299.41 1034.93C2292.12 1029.34 2293.07 1020.41 2290.82 1012.84C2290.48 1011.68 2290.75 1010.18 2290 1008.89C2282.91 995.999 2280.46 981.612 2278.07 967.43C2277.12 961.634 2271.12 961.634 2269.96 956.657C2268.93 952.361 2272.07 947.657 2268.93 944.111C2261.43 935.657 2259.18 925.497 2257.75 914.724C2257.27 910.974 2254.21 907.633 2252.84 903.951C2250.25 896.86 2247.39 889.837 2244.8 882.746C2241.18 872.996 2231.5 865.428 2219.5 865.223C2212.14 865.087 2200.61 876.473 2200.68 884.86C2200.82 898.36 2201.91 911.929 2209.34 923.929C2209.89 924.815 2211.25 925.77 2211.11 926.452C2209.34 935.656 2216.23 940.634 2220.73 946.77C2222.98 951.134 2222.3 955.566 2221.21 960.066C2222.5 964.089 2229.32 966.543 2224.61 972.271C2224.48 972.475 2224.61 973.225 2224.61 973.225C2233.82 974.725 2229.93 983.794 2233.21 988.839C2239.41 998.249 2237.02 1011.14 2244.32 1020.54C2242.55 1025.39 2242.55 1030.16 2244.18 1035.07C2245 1037.52 2245.07 1040.25 2248.34 1040.73C2249.91 1041 2251.75 1042.3 2250.73 1043.39C2245.48 1048.98 2252.36 1050.89 2253.66 1054.57C2255.37 1059.41 2257 1064.39 2257.89 1069.43C2258.43 1072.43 2259.12 1075.02 2261.37 1077.14C2262.12 1077.82 2263.34 1079.18 2263.07 1079.73C2258.5 1090.43 2269.41 1097.66 2269.21 1107.34C2269.21 1110.21 2271.52 1111.77 2272.62 1114.02C2273.91 1116.55 2276.84 1118.46 2271.39 1119C2271.18 1119 2270.77 1120.57 2271.05 1120.98C2277.87 1130.25 2273.02 1140.55 2273.37 1150.3C2273.71 1159.91 2268.66 1167.48 2260.62 1172.87C2259.87 1173.21 2259.59 1173.55 2259.8 1173.89C2260 1174.3 2260.21 1174.5 2260.48 1174.5H2260.41C2261.09 1175.93 2263.82 1176.68 2262.25 1179.07C2260.68 1180.5 2261.77 1183.64 2258.84 1184.18C2258.02 1184.12 2257.41 1183.64 2257.07 1182.89C2256.73 1181.87 2256.39 1180.78 2255.57 1179.96L2254.62 1179.68C2254.62 1179.68 2253.66 1179.96 2253.66 1180.03C2253.18 1180.5 2252.77 1181.12 2252.57 1181.8C2252.36 1182.48 2252.02 1183.09 2251.62 1183.71C2251.48 1184.39 2251.34 1185.68 2251.14 1185.68C2242.61 1185.75 2237.43 1193.39 2229.52 1194.89C2227.55 1196.87 2225.09 1197 2222.5 1196.53C2221.14 1195.98 2219.77 1195.43 2218.41 1196.53C2215.27 1199.39 2209.75 1196.18 2207.36 1200.96C2206.82 1201.84 2205.93 1202.53 2205.66 1203.55L2205.52 1203.75C2203.82 1204.43 2204.43 1206.89 2202.73 1207.57C2198.36 1208.8 2196.86 1204.3 2193.8 1203C2189.43 1201.23 2186.84 1202.39 2187.52 1207.64H2187.59C2184.66 1207.91 2181.52 1208.25 2179.34 1205.8C2174.3 1200.07 2167 1198.43 2160.52 1195.37C2151.25 1191 2143.2 1185.55 2141.98 1174.5C2141.5 1170.27 2137 1171.71 2136.32 1168.84C2134.54 1161.55 2133.11 1154.25 2128.2 1148.05C2127.25 1146.89 2128.68 1143.89 2128.82 1141.77C2129.09 1135.71 2127.66 1130.39 2124.86 1124.59C2122.2 1119.07 2118.52 1113.34 2118.04 1106.8C2118.04 1106.52 2118.18 1106.18 2118.32 1105.91C2110.54 1104.34 2113.07 1096.77 2111.16 1092.27C2106.59 1081.5 2100.73 1070.66 2101.48 1058.52C2101.75 1053.95 2095.07 1052.25 2098.27 1047.07C2100.93 1042.7 2097.38 1039.36 2095 1036.02C2093.36 1033.7 2093.91 1031.11 2093.84 1028.66C2093.7 1022.52 2091.04 1017.48 2087.63 1012.77C2082.18 1005.27 2080.48 996.476 2080.61 987.68C2080.68 982.635 2079.86 978.748 2077.2 974.794C2074 970.089 2070.52 965.384 2068.2 960.271C2066.77 957.134 2062.54 953.793 2066.63 949.566C2067.79 948.407 2066.5 947.725 2066.02 946.907C2057.63 931.565 2045.36 929.043 2030.84 939.543C2029.95 940.157 2028.79 940.361 2027.84 940.77C2027.16 942.475 2021.22 940.225 2024.63 944.998C2024.56 947.179 2022.31 947.93 2021.56 949.634C2021.7 951.066 2022.79 951.339 2023.88 951.339C2027.84 951.475 2026.27 953.725 2025.59 955.702C2023.41 958.293 2026.81 959.043 2027.22 960.816C2025.04 964.362 2028.72 967.566 2027.97 971.044V970.907C2029.95 971.794 2029.95 973.635 2029.95 975.407C2029.95 982.703 2032 989.589 2034.93 996.067C2037.72 1002.27 2037.11 1009.7 2042.57 1015.23C2044.47 1017.2 2045.09 1021.98 2042.7 1025.45L2042.57 1025.25C2044.07 1027.09 2048.84 1027.64 2044.88 1031.45C2048.29 1041 2047.68 1052.05 2053.41 1060.5C2056.47 1065 2057.91 1069.3 2058.32 1074.27C2058.86 1081.3 2060.09 1087.98 2065.41 1093.09C2066.84 1094.46 2067.45 1095.75 2067.45 1097.73C2067.32 1112.32 2074.88 1124.8 2079.66 1137.96C2081.36 1142.73 2081.57 1148.25 2086.41 1152.68C2090.09 1156.02 2091.66 1162.71 2091.52 1168.84C2091.25 1178.05 2094.25 1186.57 2096.84 1195.37C2099.84 1205.59 2100.59 1216.44 2102.36 1227.07C2103.25 1232.32 2099.63 1237.78 2103.04 1242.89C2099.02 1246.71 2098.68 1252.57 2095.34 1256.66C2089.34 1264.03 2083.34 1271.46 2074.47 1275.69C2071.95 1276.91 2071.41 1281 2067.59 1280.19C2066.5 1281.69 2065.47 1283.32 2063.22 1282.03C2060.91 1279.85 2057.5 1278.35 2055.59 1280.94C2050.34 1288.3 2041.88 1286.53 2035.07 1288.1C2028.25 1289.66 2021.29 1292.6 2013.72 1291.23C2009.91 1290.55 2005.75 1292.25 2001.93 1291.71C1993.47 1290.48 1986.31 1286.66 1979.9 1280.73C1968.79 1270.5 1965.79 1255.64 1957.54 1243.84C1955.97 1241.59 1959.72 1238.73 1956.45 1236.89C1961.7 1230.96 1956.04 1226.53 1953.59 1222.64C1950.18 1217.25 1948.88 1211.39 1946.63 1205.73C1946.22 1204.71 1945.2 1203.28 1945.54 1202.73C1953.25 1191.62 1943.56 1185.21 1938.93 1177.43C1937.63 1175.25 1936.2 1173.14 1935.18 1170.82C1934.15 1168.37 1930.2 1165.43 1936.06 1163.46C1938.11 1162.77 1936.61 1160.73 1935.65 1160.18C1932.11 1158.21 1931.97 1154.05 1929.65 1151.25C1928.43 1149.75 1927.81 1147.91 1930.61 1146C1932.99 1144.43 1932.38 1142.25 1928.77 1143.07C1927.88 1143.27 1927.13 1142.8 1927.34 1141.98C1928.84 1135.5 1925.77 1131 1921.13 1127.05C1920.72 1126.71 1920.72 1125.61 1920.86 1125C1923.45 1116.34 1918.74 1109.86 1914.99 1102.71C1910.9 1094.93 1905.59 1085.93 1906.4 1078.02C1907.22 1070.45 1903.95 1067.25 1900.88 1062.41C1897.27 1056.75 1893.99 1050.82 1895.97 1043.25C1896.58 1040.93 1896.52 1037.52 1894.06 1035.14C1890.79 1031.86 1889.83 1028.11 1889.83 1023.07C1889.83 1018.5 1885.81 1013.93 1883.63 1009.29C1881.31 1004.32 1878.18 999.408 1881.86 993.749C1883.15 991.771 1882.13 990.612 1880.9 989.044C1877.9 985.498 1874.97 981.885 1873.68 977.248C1873.2 975.476 1872.31 973.839 1871.77 972.135C1870.4 968.044 1875.38 961.634 1871.49 960.339C1865.7 958.498 1867.54 953.793 1865.15 950.93C1862.49 947.657 1863.93 942.543 1859.9 939.338C1856.77 936.816 1857.93 931.906 1859.29 929.452C1862.08 924.406 1859.9 920.179 1858.47 916.156C1855.13 906.951 1852.13 897.474 1845.99 889.428C1843.88 886.633 1842.58 883.019 1844.49 879.337L1844.36 879.542C1841.22 867.405 1830.72 857.655 1832.83 843.814C1828.61 837.882 1826.9 830.791 1824.17 824.177C1823.77 820.359 1825.33 816.609 1824.58 812.79C1824.17 805.563 1822.67 798.199 1827.11 791.517C1827.92 790.017 1828.95 788.722 1830.24 787.699C1831.06 786.881 1831.88 786.063 1832.22 784.903C1832.22 783.267 1831.67 781.767 1830.86 780.335C1829.49 779.381 1830.24 778.494 1831.2 778.29C1838.56 776.926 1838.56 776.926 1837.67 769.903C1840.33 767.994 1841.9 770.449 1843.74 771.335C1843.74 771.267 1844.56 771.335 1844.56 771.335C1844.56 771.335 1844.63 770.517 1844.56 770.449C1843.67 768.744 1841.08 767.858 1842.31 765.335C1850.36 758.857 1859.97 755.857 1869.38 752.175C1872.24 751.085 1874.36 750.675 1877.36 751.153C1880.83 751.698 1884.31 750.13 1887.86 748.562C1899.11 743.516 1909.34 735.675 1922.9 736.561C1928.29 736.902 1934.36 735.266 1938.18 730.016C1941.11 730.425 1943.43 729.266 1945.2 727.016C1947.04 726.675 1948.75 726.948 1950.11 728.311C1951.2 729.539 1951.2 731.38 1952.36 732.539C1952.77 732.539 1952.9 733.357 1953.45 732.88C1952.84 732.402 1952.7 731.72 1952.97 731.039L1953.79 730.425L1953.65 730.152Z" fill="#E52622"/>
<path d="M1394.55 251.915C1395.44 248.915 1392.78 247.415 1391.76 245.233C1391.28 244.279 1390.67 242.506 1391.01 242.233C1396.33 237.733 1390.12 230.71 1393.87 226.892C1397.83 222.801 1395.71 216.869 1399.73 213.392C1400.76 212.505 1402.33 212.301 1403.62 211.755C1406.14 210.664 1405.8 208.824 1403.62 208.483C1400.48 208.074 1398.64 208.824 1401.37 204.596C1403.42 201.392 1406.08 196.687 1400.28 193.346C1398.78 192.46 1399.33 190.005 1399.53 188.232C1399.8 185.778 1404.51 184.959 1402.39 181.959C1399.87 178.482 1397.08 173.641 1393.6 172.755C1384.67 170.505 1379.42 161.709 1369.8 160.754C1365.71 160.345 1361.82 158.572 1357.39 158.436C1351.12 158.163 1344.3 158.232 1339.32 152.981C1338.64 152.231 1337.28 151.413 1336.46 151.618C1325.41 154.413 1318.05 145.481 1308.71 143.027C1304.55 141.936 1300.05 139.481 1296.23 140.981C1289.82 143.504 1284.5 139.89 1281.5 136.958C1276.94 132.527 1271.41 129.595 1266.78 125.299C1262.41 121.276 1259.41 117.185 1258.05 111.117C1256.69 104.912 1254.57 98.9122 1253.41 92.6393C1252.6 88.412 1254.91 84.4574 1253.89 81.3891C1252.25 76.4117 1254.57 73.8208 1256.35 69.9343C1258.39 65.3661 1257.64 59.7068 1258.87 54.6613C1261.73 43.0701 1265.62 31.7517 1272.44 21.7288L1272.23 21.9333C1276.32 15.4559 1281.37 9.59217 1288.46 6.79666C1299.23 2.5693 1310.01 -3.56719 1322.21 2.63749C1323.16 3.3875 1324.12 4.27388 1325.01 2.63749C1337.82 3.59205 1350.3 5.97846 1362.64 10.1376C1375.53 14.5014 1389.1 16.7514 1402.33 20.0924C1407.58 21.3879 1412.89 22.2743 1417.87 24.6607C1423.05 27.1834 1428.51 28.7517 1434.51 29.0926C1445.76 29.7744 1455.64 36.1154 1466.83 37.3427C1467.24 44.9793 1477.12 39.1837 1478.9 45.8656C1479.3 47.502 1482.44 44.2292 1484.55 44.2292C1486.8 45.5929 1489.05 43.6156 1491.3 44.1611C1493.62 43.9565 1495.12 45.1156 1496.9 46.6838C1501.6 50.7067 1506.92 54.0476 1513.6 53.0931C1515.92 52.7522 1517.9 53.2294 1519.6 54.7977C1522.26 57.2523 1525.6 57.5932 1528.81 56.5022C1531.6 55.5477 1533.44 55.5477 1535.21 58.275C1535.76 59.1614 1537.87 59.5023 1539.17 59.3659C1550.35 58.4114 1559.15 65.0933 1569.1 67.957C1579.26 70.8889 1589.83 76.4799 1601.28 72.6617C1603.12 72.048 1604.76 73.1389 1606.4 73.9571C1622.22 81.7982 1639.94 82.5482 1656.51 87.8665C1658.22 88.412 1660.33 88.0711 1661.83 88.8893C1677.31 97.1394 1695.04 97.0712 1711.4 102.185C1719.38 104.708 1727.76 105.867 1735.2 109.89C1739.42 112.208 1744.47 110.844 1748.22 112.14C1762.74 117.322 1778.29 120.799 1790.83 130.345C1798.54 136.277 1802.42 145.277 1805.29 154.345C1808.42 164.436 1810.47 174.732 1805.29 184.959C1804.13 187.209 1804.13 189.937 1805.36 192.391C1806.04 193.687 1807.2 195.732 1805.7 196.073C1798.33 197.982 1800.31 203.232 1800.79 208.074C1801.06 210.801 1799.15 212.642 1798.06 214.892C1795.13 220.756 1790.9 226.278 1791.31 233.301C1791.52 237.392 1784.08 236.301 1786.13 240.12C1789.2 245.779 1783.2 246.256 1781.9 249.324C1781.49 250.211 1779.45 250.552 1778.08 250.893C1773.11 252.188 1768.13 253.552 1764.17 256.961C1762.26 258.597 1760.42 258.734 1758.11 258.529C1755.92 258.325 1752.86 257.711 1751.76 258.802C1743.99 266.643 1737.79 261.87 1730.7 257.438C1725.04 253.824 1718.35 251.779 1711.4 252.597C1709.63 252.802 1708.06 253.415 1706.29 252.188C1697.35 246.12 1686.1 246.802 1676.63 242.711C1668.51 239.165 1659.85 239.438 1651.6 237.324C1648.47 236.506 1644.65 233.642 1642.33 238.892C1642.13 239.301 1640.9 239.711 1640.9 239.711C1639.81 237.801 1640.28 234.256 1636.13 235.551C1632.78 236.574 1634.76 240.12 1632.65 241.756C1628.01 245.302 1621.88 245.506 1616.83 246.87C1609.74 248.711 1609.19 252.529 1609.88 257.302C1610.49 261.393 1609.6 263.984 1605.99 264.87C1601.9 265.893 1601.76 267.938 1601.42 271.825C1600.67 279.734 1600.6 287.984 1595.22 295.007C1591.33 300.053 1593.24 307.007 1591.33 313.076C1588.53 321.94 1587.24 331.281 1583.28 339.804C1581.44 344.304 1586.62 342.258 1587.44 344.235C1588.26 344.713 1588.47 345.122 1588.12 345.463C1587.85 345.804 1587.51 345.94 1587.24 345.94C1581.99 347.44 1577.83 349.076 1579.94 356.44C1580.83 359.645 1579.67 365.168 1577.97 367.35C1568.83 379.282 1572.24 395.577 1563.24 407.373C1562.69 408.123 1562.83 409.487 1562.9 410.509C1564.47 425.646 1555.06 438.056 1552.33 452.101C1551.78 454.965 1550.83 458.579 1550.76 461.17C1550.76 466.42 1550.56 470.92 1547.96 475.829C1545.78 479.92 1546.19 485.034 1544.56 489.807C1541.56 498.466 1535.42 506.784 1535.9 515.989C1536.37 524.989 1528.26 531.535 1530.65 540.876C1531.26 543.194 1527.92 546.535 1526.56 549.467C1523.01 557.035 1517.49 563.717 1515.65 572.036C1514.15 578.99 1508.21 581.649 1502.9 582.331C1493.28 583.627 1483.6 584.513 1474.46 587.854C1471.6 588.877 1472.15 587.854 1471.33 586.081C1470.58 584.445 1468.19 583.422 1466.62 584.104C1461.85 586.149 1457.69 588.263 1453.8 582.263C1452.64 580.422 1449.92 583.013 1448.01 583.695C1443.58 585.263 1441.05 584.24 1437.1 580.831C1429.8 574.558 1420.87 571.149 1410.17 571.013C1399.46 570.876 1386.85 573.263 1378.73 562.081C1378.39 561.604 1377.51 561.126 1376.89 561.126C1369.19 560.99 1362.78 555.876 1355.76 555.126C1350.71 554.581 1347.98 552.671 1344.85 549.808C1338.57 544.149 1333.67 537.33 1329.37 530.171C1325.76 524.239 1321.32 518.103 1326.1 510.602C1323.16 504.534 1325.69 497.716 1323.64 491.579C1323.03 489.807 1322.14 487.352 1323.23 486.397C1329.57 480.602 1328.01 472.556 1330.12 465.533C1334.01 452.442 1337.55 439.283 1339.87 425.919C1340.89 420.123 1343.35 414.873 1345.05 409.487C1349.35 395.987 1350.85 381.873 1355.42 368.509C1359.92 355.349 1363.67 341.985 1367.69 328.69C1368.85 324.871 1366.26 318.803 1372.73 317.098C1373.01 317.03 1373.28 315.871 1373.14 315.326C1370.01 304.144 1379.62 295.553 1379.42 284.984C1379.42 281.711 1383.1 280.484 1384.19 280.007C1393.05 276.325 1394.01 268.961 1394.42 261.052C1392.64 257.984 1392.58 254.915 1394.48 251.847L1394.55 251.915Z" fill="#E52622"/>
<path d="M1090.11 495.738C1095.5 486.26 1095.64 477.056 1089.71 467.578C1081.25 454.01 1068.02 446.646 1054.86 438.941C1046.48 434.032 1036.45 432.6 1028.68 426.668C1020.5 420.395 1010 421.486 1001.2 416.986C997.999 415.35 993.84 415.009 990.43 412.691C983.612 408.054 976.794 403.077 969.294 399.941C960.089 396.122 952.657 389.781 944.339 384.736C936.907 380.236 939.702 373.417 938.816 367.281C938.543 365.576 937.657 364.281 938.748 362.372C941.134 358.349 943.043 354.053 945.361 350.03C948.498 344.576 949.043 338.848 947.884 332.848C946.725 332.848 945.157 333.666 944.816 331.553C945.839 331.485 946.861 331.348 947.884 331.28C948.361 330.735 949.248 330.257 949.18 329.712C949.043 321.734 947.407 313.484 955.657 307.825C956.748 307.075 957.157 304.416 956.884 302.779C955.793 295.143 953.68 287.575 958.248 280.211C959.203 278.643 958.043 275.643 956.952 275.302C952.248 273.87 953.543 270.665 954.43 267.801C955.93 262.892 950.68 258.188 954.089 253.278C947.816 243.869 948.293 232.142 942.293 222.119C932.816 206.368 923.338 190.754 911.065 177.05C904.52 169.754 897.088 163.277 890.269 156.117C884.951 150.526 878.405 146.844 872.064 142.753C857.61 133.549 842.95 124.617 826.382 120.048C816.495 117.321 806.949 111.935 795.972 114.321C793.926 114.798 791.608 114.526 789.426 114.253C778.79 112.821 768.494 112.685 757.857 115.616C752.403 117.117 748.721 118.685 747.903 124.276C743.266 123.662 742.653 116.98 737.402 118.889C727.107 122.639 716.811 126.389 709.447 135.117C708.766 135.935 707.538 137.367 707.402 137.299C700.72 132.662 696.561 140.299 690.765 140.981C684.833 141.662 677.265 144.185 675.697 152.776C674.878 157.14 671.333 160.004 667.106 159.322C660.151 158.231 655.242 160.617 649.583 164.572C646.378 166.822 642.969 167.368 642.355 172.072C642.219 173.436 640.037 175.14 638.469 175.55C628.241 178.413 621.491 187.55 611.332 190.482C610.377 190.754 609.218 190.55 608.604 191.845C604.241 201.391 597.15 206.368 586.309 205.141C585.763 205.141 585.081 205.823 584.468 206.164C582.013 207.05 583.786 210.664 581.127 211.414C580.172 211.482 579.422 211.891 578.808 212.505C577.717 216.187 577.649 220.278 575.126 223.482L575.331 223.278C573.013 226.551 570.149 231.323 566.399 230.028C559.922 227.778 556.512 232.823 555.421 235.551C551.671 244.687 543.217 244.756 536.398 248.642C535.262 243.505 532.512 241.687 528.148 243.187C527.807 243.324 527.466 243.46 527.125 243.596C526.239 244.005 525.557 244.619 525.08 245.437V245.574L524.33 246.392C524.33 246.392 524.739 247.346 524.807 247.415C524.807 247.415 524.944 247.619 525.148 247.824C525.012 247.687 524.875 247.483 524.671 247.346L523.716 246.937L523.103 247.687C520.58 249.597 518.193 252.801 515.398 253.142C508.034 254.028 504.966 258.733 502.511 264.597C499.375 266.779 495.284 265.347 492.147 267.461C490.92 268.074 489.693 268.756 488.397 269.233C480.147 272.165 477.556 282.938 467.942 284.029C467.738 284.029 467.806 285.938 467.738 287.029C466.17 288.393 464.601 289.688 463.033 290.984C460.17 293.37 459.556 299.438 453.488 296.779C453.078 296.575 451.442 297.87 451.169 298.688C449.601 303.12 445.919 302.984 442.306 302.984C439.851 302.984 438.419 304.416 437.396 306.461C437.942 306.734 438.555 307.075 439.101 307.348C438.76 307.689 438.419 308.098 438.01 308.439C437.669 307.961 437.328 307.484 436.987 306.939C433.987 306.393 431.192 304.689 428.328 308.302C425.942 311.302 422.464 314.03 418.987 315.598C403.168 322.825 389.532 333.462 375.35 343.212C352.508 358.894 348.008 385.486 358.849 409.35C363.281 419.1 370.236 426.873 375.554 435.873C384.418 450.942 393.009 466.01 403.987 479.715C407.6 484.215 411.009 488.988 413.669 494.102C424.305 514.42 437.737 532.966 450.283 552.057C460.988 568.421 471.079 585.262 482.738 600.945C492.079 613.49 497.943 628.082 507.625 640.355C512.807 646.9 516.421 654.605 522.83 660.264C524.875 662.037 526.512 664.696 527.194 667.696C528.216 672.401 531.421 676.014 533.603 680.174C540.489 693.469 549.83 705.06 557.808 717.606C569.399 735.947 581.467 753.948 594.831 771.13C603.627 782.448 614.673 788.721 628.787 790.562C635.878 791.449 642.628 789.744 649.31 788.653C661.174 786.744 670.787 778.835 680.81 772.766C685.583 769.835 689.265 765.403 695.402 764.993C697.311 764.857 699.493 764.243 700.038 762.607C703.243 753.334 714.22 753.675 719.334 746.652C722.334 742.561 729.902 745.493 732.084 741.675C734.812 736.902 738.425 733.834 742.653 731.175C749.539 726.947 754.857 720.947 761.062 716.038C769.04 709.765 768.903 699.265 774.562 691.901C775.244 690.947 774.835 689.037 774.699 687.606C773.062 671.582 768.63 656.514 760.994 642.195C755.948 632.65 747.63 625.9 742.243 616.763C736.243 606.536 730.243 596.24 723.97 586.217C718.652 577.694 712.516 569.512 715.038 558.535C711.288 555.671 716.198 553.421 715.584 550.285C714.288 543.739 718.72 536.648 725.198 534.057C727.311 533.239 726.084 531.534 726.698 531.125C734.062 526.557 739.721 517.284 750.63 521.579C751.994 524.307 753.903 523.079 755.948 522.398C766.312 518.92 776.54 520.148 785.881 525.261C793.108 529.216 798.904 535.966 808.108 535.966C821.95 545.989 838.927 549.875 853.109 560.103C866.269 569.649 882.633 574.694 896.542 583.763C897.974 584.717 899.951 584.853 901.724 585.126C912.838 586.967 922.52 593.035 933.634 595.285C940.316 596.649 946.725 598.217 953.543 598.013C958.725 597.808 956.952 594.672 956.134 591.944C952.862 588.876 955.316 586.899 957.839 585.808C958.793 585.399 958.793 587.99 959.066 589.285C970.589 587.103 978.635 577.899 989.476 574.285C990.635 573.876 991.59 572.308 992.34 571.08C995.681 565.353 1001.41 563.035 1007.2 560.989C1011.5 559.421 1015.39 558.398 1019.27 554.58C1028.27 545.853 1039.11 539.034 1049.14 531.33C1051.11 529.83 1053.3 530.648 1055.41 530.17C1059.77 527.239 1064.95 525.057 1068.23 521.238C1071.43 517.557 1078.8 517.897 1078.32 510.875C1085.21 511.625 1085.14 505.011 1088.07 501.67C1088.89 499.624 1089.43 497.511 1090.46 495.602L1090.11 495.738ZM950.816 296.234C950.816 296.234 951.566 296.847 951.566 296.984C951.293 297.87 950.611 298.143 949.793 297.802C949.452 297.666 949.248 297.325 948.975 297.12C949.589 296.847 950.202 296.575 950.816 296.302V296.234ZM944.202 340.485L944.816 340.894L944.134 341.098V340.485H944.202ZM467.874 287.165C467.874 287.165 467.738 287.165 467.67 287.234L467.874 287.029C467.874 287.029 467.874 287.097 467.874 287.165C468.624 286.756 469.579 287.165 469.374 287.575C468.352 289.552 468.147 288.12 467.874 287.165ZM525.898 248.847C525.898 248.847 525.557 248.506 525.421 248.369C525.557 248.369 526.239 248.165 526.375 248.233C526.444 248.233 525.898 248.846 525.966 248.915L525.898 248.847ZM686.538 394.213C685.447 394.213 684.629 393.736 684.901 392.44C685.038 392.031 685.72 391.349 686.061 391.418C687.083 391.554 687.833 392.236 687.97 393.327C687.492 393.599 687.015 394.145 686.538 394.213ZM740.743 335.644C739.925 336.326 740.198 336.667 740.948 337.348C746.062 342.189 741.971 343.008 738.016 343.758C736.584 344.03 735.152 344.167 733.721 344.371C733.857 346.758 738.357 346.826 736.721 349.826C736.312 350.508 734.266 350.371 733.039 350.576C728.198 351.599 726.766 356.303 724.107 359.372C721.448 362.44 718.448 364.417 715.175 366.394C715.652 368.508 715.72 370.349 713.538 371.781C711.22 373.349 709.311 375.326 707.197 377.167C707.197 378.258 707.061 379.349 706.993 380.44C706.788 382.69 705.356 383.849 703.379 383.304C699.697 382.349 704.606 380.917 703.379 379.826C702.356 378.872 701.197 378.054 700.106 377.167C697.311 377.44 694.72 377.986 693.697 381.054C693.697 381.122 693.697 381.19 693.697 381.258C694.583 381.531 695.538 381.736 696.424 382.008C696.083 382.417 695.743 383.099 695.402 383.099C694.243 383.099 693.765 382.281 693.765 381.258H693.629C693.629 381.258 693.629 381.19 693.629 381.122C688.379 382.486 685.038 387.531 679.379 388.145C677.879 388.281 676.515 389.44 677.606 391.145C679.992 394.963 677.265 394.69 675.288 393.736C672.969 392.577 670.787 391.077 668.401 392.849C661.242 398.1 653.469 402.736 647.946 409.963C648.696 412.418 649.378 415.282 645.832 415.623C642.014 415.895 643.241 412.418 642.969 410.236C637.923 410.577 632.946 411.532 628.582 413.85C624.218 416.168 621.15 415.418 617.877 412.213C609.764 404.372 601.65 396.804 601.104 384.19C600.831 377.917 604.786 368.576 611.059 366.053C616.036 364.076 619.65 361.622 620.741 355.69C621.627 350.985 626.605 349.758 630.696 348.53C637.514 346.553 643.241 342.939 648.014 337.757C649.514 335.235 653.264 336.121 654.696 333.053C655.378 331.553 657.424 332.644 658.105 333.803C658.924 335.235 657.151 336.189 656.674 337.416C660.696 338.712 664.446 338.235 668.197 336.121C670.992 334.553 673.106 333.053 672.151 329.371C670.515 323.166 674.947 319.553 679.038 317.03C682.992 314.643 687.424 313.075 691.174 310.075C694.924 307.075 698.402 313.007 702.425 311.302C701.47 305.916 704.47 304.552 709.038 304.689C726.834 297.938 737.266 308.711 747.698 321.121C741.971 324.325 745.38 331.689 740.812 335.644H740.743ZM750.63 521.511C750.63 521.511 750.562 521.648 750.494 521.784L750.357 521.648C750.426 521.648 750.562 521.648 750.63 521.579C750.835 521.17 751.039 520.693 751.244 520.284C751.516 520.557 751.721 520.829 751.994 521.17C751.516 521.307 751.107 521.443 750.63 521.579V521.511Z" fill="#E52622"/>
<path d="M1238.9 2035.52C1238.15 2032.11 1235.55 2031.57 1232.69 2031.22C1235.01 2023.38 1230.92 2015.61 1233.44 2007.29C1235.21 2001.29 1227.24 1996.52 1225.12 1990.66C1222.53 1983.56 1216.46 1978.93 1211.15 1976.95C1203.37 1974.02 1197.17 1968.91 1189.87 1965.63C1188.24 1964.88 1186.19 1963.52 1184.83 1964C1177.33 1966.66 1172.42 1962.29 1167.92 1957.86C1163.14 1953.09 1157.35 1950.5 1151.21 1948.31C1141.12 1944.7 1130.69 1941.77 1121.83 1935.36C1118.21 1932.77 1114.19 1931.47 1109.76 1930.86C1105.12 1930.25 1100.28 1929.77 1096.32 1927.18C1082.62 1918.18 1066.32 1915.45 1052.07 1907.75C1048.94 1906.04 1045.05 1902.97 1042.26 1903.65C1033.39 1905.7 1028.41 1898.4 1021.53 1896.7C1011.64 1894.31 1003.94 1888.11 994.936 1884.49C992.277 1883.4 989.277 1882.59 986.482 1882.59C979.322 1882.72 973.458 1879.99 967.39 1876.52C963.026 1873.99 958.458 1870.65 952.526 1872.09C948.776 1873.04 945.708 1870.79 942.435 1868.95C930.708 1862.47 919.867 1853.27 904.866 1856.06C903.162 1856.4 900.775 1855.93 900.298 1854.02C898.389 1846.58 891.775 1847.2 887.07 1847.61C873.366 1848.7 860.206 1848.36 847.797 1841.47C845.82 1840.38 842.956 1839.77 840.365 1840.86C838.251 1845.83 834.16 1841.33 831.365 1842.77C828.296 1842.97 828.774 1837.65 825.092 1838.88C824.205 1839.43 823.524 1840.11 822.91 1840.93C822.433 1841.74 821.955 1842.63 820.728 1842.43C819.16 1842.29 817.66 1842.63 816.092 1842.83C811.864 1844.4 807.501 1844.47 803.41 1842.7C800.546 1841.47 798.432 1841.4 795.432 1842.7C789.773 1845.29 784.318 1847.47 777.909 1842.43C775.523 1840.58 768.773 1840.18 765.159 1843.45C760.045 1848.02 754.386 1849.72 747.704 1850.27C741.158 1850.81 735.09 1853.13 732.908 1860.49C729.226 1863.29 725.544 1858.93 721.931 1860.49C720.226 1860.9 718.862 1861.72 717.908 1863.22C716.476 1866.15 713.612 1864.86 711.362 1865.47C709.794 1866.43 708.158 1867.38 706.794 1868.54C704.885 1872.15 700.385 1869.22 698.135 1872.02C694.18 1873.45 691.521 1877.47 687.021 1877.95C686.68 1879.31 686.271 1881.63 685.248 1881.15C680.134 1878.7 679.112 1884.36 679.112 1885.59C679.316 1890.77 677.202 1891.99 672.634 1891.38C669.702 1890.97 671.202 1893.97 670.657 1894.45C660.361 1904.47 650.406 1914.77 641.474 1926.02C639.906 1928 638.747 1926.84 637.111 1926.84C632.679 1926.84 632.747 1927.04 633.702 1932.5C633.838 1933.11 632.406 1934.06 631.656 1934.88C629.338 1938.02 627.497 1941.56 623.815 1943.47C622.247 1942.93 620.679 1942.38 619.11 1941.84C616.997 1942.52 615.906 1943.75 616.519 1946.13C617.542 1946.34 618.565 1946.34 619.451 1946.68C620.679 1947.22 622.247 1948.04 621.77 1949.47C621.565 1950.09 619.451 1950.15 618.224 1950.36C617.61 1950.43 616.86 1950.22 616.247 1950.15C614.133 1951.93 611.678 1953.5 612.428 1956.91C613.792 1956.97 615.974 1957.04 615.906 1958.34C615.906 1959.43 613.588 1959.29 612.224 1958.88C609.224 1965.09 601.655 1965.09 597.428 1969.66C598.178 1973.27 604.928 1972.52 603.224 1976.2C601.928 1979.06 601.11 1983.56 598.451 1984.66C590.201 1988.06 591.905 1992.91 594.496 1999.11C596.542 2004.09 594.292 2007.63 589.587 2006.61C585.291 2005.66 581.405 2007.77 582.223 2010.02C584.473 2016.29 575.609 2012.34 577.382 2015.88C579.632 2020.38 575.405 2024.41 577.996 2029.18C581.132 2034.84 580.246 2040.57 574.178 2045.2C569.132 2049.02 566.541 2056.11 568.587 2061.36C570.632 2066.61 565.927 2066.61 565.45 2069.34C564.837 2073.09 570.428 2075 568.177 2079.09C567.837 2079.63 567.155 2080.18 566.541 2080.45C562.109 2082.23 566.814 2085.43 565.382 2087.61C572.064 2090.41 567.496 2094.43 566.268 2097.84C564.359 2103.09 562.314 2108.27 567.427 2112.91C568.382 2113.79 568.791 2115.43 568.109 2115.7C560.473 2118.84 566.677 2125.25 564.632 2129.61C566.337 2129.61 569.132 2128.93 569.609 2129.75C571.655 2132.95 566.677 2131.66 566.541 2133.77C566.473 2135.27 565.927 2136.5 564.291 2136.98C567.768 2143.73 563.405 2152.8 570.496 2158.45C566.268 2167.18 573.7 2174.27 574.041 2182.39C574.314 2188.18 576.973 2193.5 581.541 2197.32C585.019 2200.18 586.451 2204.27 585.769 2207.82C584.814 2212.8 587.337 2216.34 589.11 2219.82C598.11 2237.14 609.837 2252.68 622.179 2267.68C628.383 2275.25 634.315 2283.98 642.361 2288.75C652.111 2294.55 659.816 2302.73 668.68 2309.28C677.884 2316.16 686.475 2322.91 696.907 2328.44C711.226 2336.07 726.363 2342.07 740.204 2350.39C760.045 2362.32 782.546 2368.05 803.069 2378.28C807.296 2380.39 812.478 2379.98 816.296 2382.98C826.865 2391.3 840.297 2392.66 852.229 2397.23C862.388 2401.12 872.275 2404.12 879.979 2412.03C881.343 2413.46 883.32 2414.62 884.752 2413.73C890.957 2409.85 896.207 2414.01 900.571 2416.46C913.253 2423.62 928.117 2425.05 940.39 2433.37C947.958 2438.48 957.572 2440.46 966.163 2444.07C985.663 2452.39 1005.57 2459.28 1026.91 2461.05C1028.69 2461.19 1031.01 2462.82 1032.16 2461.46C1037.48 2455.12 1045.46 2454.85 1052.35 2452.19C1054.26 2451.44 1056.85 2449.6 1056.98 2448.1C1057.39 2443.73 1061.76 2442.64 1062.98 2439.78C1065.1 2434.73 1072.73 2432.35 1070.14 2425.05C1069.94 2424.37 1071.23 2423.28 1071.71 2422.32C1076.96 2411.89 1084.32 2402.35 1085.42 2390.14C1089.78 2388.16 1086.44 2381.14 1089.3 2380.8C1096.87 2379.98 1093.67 2375.55 1093.73 2371.87C1093.73 2370.5 1094.55 2369.07 1095.1 2367.71C1098.3 2359.05 1103.21 2350.94 1106.01 2342.28C1111.6 2324.69 1119.17 2307.91 1126.05 2290.87C1127.01 2288.55 1128.71 2286.37 1129.19 2283.98C1131.1 2273.62 1136.48 2264.62 1140.51 2255.07C1144.26 2246.07 1149.1 2237.34 1151.96 2228.27C1157.49 2210.96 1163.21 2193.98 1173.24 2178.71C1173.64 2178.09 1174.53 2177.34 1174.39 2176.93C1171.39 2167.8 1179.24 2161.73 1180.87 2154.02C1181.76 2149.86 1186.39 2148.23 1186.6 2143.8C1187.01 2134.59 1192.74 2127.16 1195.6 2118.77C1199.14 2108.41 1202.28 2097.57 1209.03 2088.23C1211.08 2085.36 1213.87 2081.13 1213.05 2076.23C1212.71 2074.45 1214.69 2072.34 1216.94 2071.52C1217.15 2070.02 1217.9 2069.07 1219.33 2068.73C1221.37 2062.45 1225.33 2057.75 1233.58 2054.34C1228.12 2052.98 1225.26 2057.13 1222.46 2054.41C1222.33 2050.18 1225.74 2048.95 1228.67 2047.79C1232.76 2046.16 1228.67 2041.45 1232.08 2039.82C1233.71 2037.43 1235.49 2035.32 1238.76 2035.66L1238.9 2035.52ZM583.655 2030.54C583.314 2030.07 582.701 2029.59 582.701 2029.11C582.837 2028.02 583.723 2027.54 584.678 2028.09C585.087 2028.29 585.36 2029.32 585.223 2029.72C585.019 2030.13 584.201 2030.27 583.655 2030.54ZM906.707 2256.84C906.094 2256.77 905.548 2256.5 904.866 2256.23C905.275 2255.89 905.684 2255.27 906.094 2255.27C906.571 2255.27 906.98 2255.89 907.457 2256.16C907.184 2256.37 906.912 2256.84 906.707 2256.84ZM998.005 2070.77C998.005 2070.77 997.936 2070.77 997.868 2070.77C990.573 2074.86 990.572 2081.48 991.663 2088.5C994.527 2096.61 987.163 2091.43 985.254 2093.34C985.936 2096.54 984.3 2098.79 982.527 2101.25C975.027 2111.48 969.913 2122.93 967.799 2135.34C966.777 2141.48 962.413 2145.16 960.095 2150.34C955.731 2160.23 952.731 2170.59 947.685 2180.21C944.617 2186 943.594 2193.09 941.412 2199.57C938.276 2208.84 933.912 2217.64 931.185 2227.18C928.662 2235.84 920.276 2243.14 911.957 2247.57C904.73 2251.46 896.411 2250.23 888.025 2247.64C874.184 2243.41 860.479 2239.12 847.388 2232.91C833.274 2226.23 818.887 2220.16 807.978 2208.36C803.478 2203.46 796.591 2202.02 792.296 2196.91C782.614 2185.25 772.932 2173.59 770.341 2157.91C769.454 2152.66 766.182 2147.82 769.182 2142.16C771.091 2138.55 766.25 2136.09 766.932 2131.39C768.023 2123.89 766.659 2123.75 772.454 2115.29C773.614 2113.59 774.773 2111.48 774.227 2109.16C772.795 2102.95 772.454 2089.18 773.75 2084.61C773.818 2084.34 774.295 2084.13 774.568 2083.86C774.636 2083.04 774.773 2082.23 774.841 2081.41C774.568 2079.57 774.227 2077.73 776.818 2077.32C776.955 2075.54 777.159 2073.84 779 2073.02C779.886 2070.7 780.5 2068.25 781.659 2066.07C782.75 2064.02 783.841 2061.36 787.182 2063.88C788.955 2065.18 791.887 2065.52 792.296 2062.73C792.773 2059.59 793.455 2055.23 787.864 2055.43C787.864 2055.5 787.864 2055.57 787.864 2055.63C787.864 2055.63 787.659 2055.63 787.591 2055.7C787.455 2056.18 787.318 2056.66 787.182 2057.13C786.841 2056.79 786.568 2056.52 786.227 2056.18C786.705 2056.04 787.182 2055.91 787.659 2055.7C787.659 2055.63 787.659 2055.5 787.727 2055.43C787.796 2055.43 787.864 2055.43 788 2055.43C788.341 2053.18 789.568 2051.88 792.091 2051.88C795.432 2051.88 798.705 2051.88 802.046 2051.88C802.182 2051.34 802.523 2050.73 802.523 2050.04C802.523 2046.5 795.773 2045.47 797.955 2042.68C800.887 2038.79 801.637 2033.27 806.478 2030.82C809.001 2029.59 811.523 2028.36 814.046 2027.2C814.046 2027.2 814.046 2027.07 813.978 2027C814.046 2027 814.114 2027 814.251 2027C814.796 2025.7 813.228 2023.66 815.546 2023.04C816.978 2022.7 818.069 2023.52 818.819 2024.68C821.819 2027.2 825.433 2027.07 829.047 2026.72C827.342 2021.54 827.683 2020.38 831.024 2021.54C835.797 2023.18 832.865 2017.25 835.66 2017.86C834.638 2015.13 835.933 2013.97 838.456 2013.5C845.001 2012.41 849.433 2005.66 856.661 2006.61C857.274 2006.68 857.615 2008.38 858.093 2009.34C858.911 2009.54 859.729 2009.75 860.547 2009.88C866.888 2010.57 873.366 2014.45 879.229 2007.57C880.661 2005.93 885.979 2004.36 886.729 2010.5C886.866 2011.86 889.116 2011.45 890.548 2011.32C891.025 2008.66 894.843 2010.09 895.389 2007.5C895.389 2007.5 895.321 2007.43 895.252 2007.36C894.366 2007.16 893.48 2006.88 892.593 2006.68C892.866 2006.34 893.139 2005.93 893.343 2005.59C893.957 2006.2 894.571 2006.75 895.184 2007.36C895.184 2007.36 895.321 2007.36 895.389 2007.36C895.389 2007.36 895.389 2007.36 895.389 2007.43C902.412 2008.72 898.457 2011.11 896.002 2013.29C898.662 2013.22 913.253 2016.5 916.662 2017.52C921.571 2019.02 926.344 2023.04 931.935 2018.61C933.026 2017.72 935.14 2018.2 936.708 2019.7C938.821 2021.75 954.163 2027.68 956.481 2028.5C971.209 2034.02 986.141 2038.59 994.868 2054C998.141 2059.73 995.618 2065.38 998.209 2070.57C998.209 2070.57 998.209 2070.57 998.277 2070.57C998.277 2070.57 998.277 2070.63 998.277 2070.7C998.754 2070.98 999.232 2071.18 999.641 2071.45C998.277 2072.68 998.482 2071.32 998.277 2070.7L998.005 2070.77ZM1231.33 2033.41C1229.96 2031.63 1231.33 2031.7 1232.35 2031.5C1232.35 2031.43 1232.42 2031.36 1232.49 2031.29L1232.69 2031.5C1232.69 2031.5 1232.49 2031.5 1232.42 2031.5C1232.08 2032.11 1231.74 2032.79 1231.4 2033.41H1231.33Z" fill="#E52622"/>
</svg>
